<svg width="40" height="42" viewBox="0 0 40 42" fill="none" xmlns="http://www.w3.org/2000/svg">
<g clip-path="url(#clip0_2103_7002)">
<g clip-path="url(#clip1_2103_7002)">
<g clip-path="url(#clip2_2103_7002)">
<mask id="mask0_2103_7002" style="mask-type:luminance" maskUnits="userSpaceOnUse" x="0" y="0" width="40" height="41">
<path d="M40 0.730103H0V40.7301H40V0.730103Z" fill="white"/>
</mask>
<g mask="url(#mask0_2103_7002)">
<path d="M38.8281 38.3083H37.1305L33.9388 31.9249C33.7403 31.5279 33.3345 31.2771 32.8906 31.2771H25.2841L19.8119 14.9454L32.0367 10.8588C32.7366 10.6248 33.05 9.80746 32.6821 9.16504C29.5294 3.65894 23.0448 0.782152 15.7352 2.75324L15.3527 1.60871C15.1475 0.994964 14.4837 0.66348 13.8697 0.868793C13.2559 1.07403 12.9246 1.73793 13.1298 2.35176L13.5124 3.49629C6.49539 6.31371 3.03492 12.5068 3.82836 18.8106C3.92109 19.5471 4.66445 20.0087 5.36266 19.7757L17.5891 15.6886L22.8123 31.2771H11.3936L1.93477 24.4668C1.40945 24.0886 0.677109 24.2078 0.298984 24.733C-0.0792188 25.2582 0.0400781 25.9906 0.565234 26.3688L9.63859 32.9016L7.89641 38.3084H1.17188C0.524687 38.3084 0 38.8331 0 39.4803C0 40.1275 0.524687 40.6521 1.17188 40.6521H38.8281C39.4753 40.6521 40 40.1275 40 39.4803C40 38.8331 39.4753 38.3083 38.8281 38.3083ZM15.3553 5.31465C15.3551 5.31473 15.3555 5.31457 15.3553 5.31465C15.3631 5.31575 16.7474 4.6698 19.2116 7.06418C20.485 8.30144 21.6102 9.94911 22.3487 11.6261L13.5643 14.5627C12.6348 10.5997 13.4205 5.96223 15.3553 5.31465ZM29.8552 9.11685L24.5795 10.8804C23.5683 8.50519 21.8255 6.04941 19.8177 4.48465C23.7927 4.34715 27.4656 5.90106 29.8552 9.11685ZM11.292 7.33434C10.6238 9.80997 10.7191 12.8203 11.3352 15.3079L6.05781 17.0721C6.03383 13.1627 7.94828 9.67387 11.292 7.33434ZM32.1663 33.6208L34.5101 38.3083H27.6401L26.0695 33.6208H32.1663ZM11.8692 33.6208H23.5977L25.1683 38.3083H10.3588L11.8692 33.6208Z" fill="#EB662B"/>
</g>
</g>
</g>
</g>
<defs>
<clipPath id="clip0_2103_7002">
<rect width="40" height="41" fill="white" transform="translate(0 0.630005)"/>
</clipPath>
<clipPath id="clip1_2103_7002">
<rect width="40" height="41" fill="white" transform="translate(0 0.630005)"/>
</clipPath>
<clipPath id="clip2_2103_7002">
<rect width="40" height="41" fill="white" transform="translate(0 0.630005)"/>
</clipPath>
</defs>
</svg>
