<svg width="40" height="42" viewBox="0 0 40 42" fill="none" xmlns="http://www.w3.org/2000/svg">
<g clip-path="url(#clip0_2103_6992)">
<path d="M34.375 11.9801H33.75V10.7301C33.75 7.28385 30.9463 4.4801 27.5 4.4801H12.5C9.05375 4.4801 6.25 7.28385 6.25 10.7301V11.9801H5.625C3.90125 11.9801 2.5 13.3826 2.5 15.1051V18.2301C2.5 18.9201 3.05875 19.4801 3.75 19.4801C4.44125 19.4801 5 18.9201 5 18.2301V15.1051C5 14.7601 5.28125 14.4801 5.625 14.4801H6.25V26.9801C6.25 29.0138 7.24125 30.8063 8.75 31.9476V34.4801C8.75 35.8588 9.87125 36.9801 11.25 36.9801H13.75C15.1287 36.9801 16.25 35.8588 16.25 34.4801V33.2301H23.75V34.4801C23.75 35.8588 24.8713 36.9801 26.25 36.9801H28.75C30.1287 36.9801 31.25 35.8588 31.25 34.4801V31.9476C32.7588 30.8051 33.75 29.0126 33.75 26.9801V14.4801H34.375C34.7188 14.4801 35 14.7601 35 15.1051V18.2301C35 18.9201 35.5588 19.4801 36.25 19.4801C36.9412 19.4801 37.5 18.9201 37.5 18.2301V15.1051C37.5 13.3826 36.0988 11.9801 34.375 11.9801ZM8.75 11.9801H31.25V21.1863C30.1187 21.6988 28.8813 21.9801 27.6388 21.9801H12.3612C11.12 21.9801 9.88125 21.6988 8.75 21.1863V11.9801ZM12.5 6.9801H27.5C29.1275 6.9801 30.5025 8.02885 31.02 9.4801H8.98C9.4975 8.02885 10.8725 6.9801 12.5 6.9801ZM13.75 34.4801H11.25V33.1038C11.6538 33.1863 12.0725 33.2301 12.5 33.2301H13.75V34.4801ZM28.75 34.4801H26.25V33.2301H27.5C27.9275 33.2301 28.3463 33.1863 28.75 33.1038V34.4801ZM27.5 30.7301H12.5C10.4325 30.7301 8.75 29.0476 8.75 26.9801V23.8726C9.9125 24.2651 11.1362 24.4801 12.3612 24.4801H27.64C28.865 24.4801 30.0887 24.2651 31.2512 23.8726V26.9801C31.2512 29.0476 29.5675 30.7301 27.5 30.7301Z" fill="#EB662B"/>
<path d="M12.5 28.2301C13.1904 28.2301 13.75 27.6705 13.75 26.9801C13.75 26.2897 13.1904 25.7301 12.5 25.7301C11.8096 25.7301 11.25 26.2897 11.25 26.9801C11.25 27.6705 11.8096 28.2301 12.5 28.2301Z" fill="#EB662B"/>
<path d="M27.5 28.2301C28.1904 28.2301 28.75 27.6705 28.75 26.9801C28.75 26.2897 28.1904 25.7301 27.5 25.7301C26.8096 25.7301 26.25 26.2897 26.25 26.9801C26.25 27.6705 26.8096 28.2301 27.5 28.2301Z" fill="#EB662B"/>
</g>
<defs>
<clipPath id="clip0_2103_6992">
<rect width="40" height="41" fill="white" transform="translate(0 0.630005)"/>
</clipPath>
</defs>
</svg>
