<svg width="40" height="42" viewBox="0 0 40 42" fill="none" xmlns="http://www.w3.org/2000/svg">
<g clip-path="url(#clip0_2103_6959)">
<g clip-path="url(#clip1_2103_6959)">
<path d="M38.3337 35.3035H34.2187V30.2302C35.2739 29.9612 36.2098 29.3491 36.8793 28.4902C37.5488 27.6313 37.9138 26.5742 37.917 25.4852V21.7019C37.917 20.3979 37.399 19.1473 36.4769 18.2253C35.5549 17.3032 34.3043 16.7852 33.0003 16.7852C31.6963 16.7852 30.4458 17.3032 29.5237 18.2253C28.6017 19.1473 28.0837 20.3979 28.0837 21.7019V25.4785C28.0869 26.5561 28.4446 27.6027 29.1015 28.4569C29.7584 29.311 30.6781 29.9254 31.7187 30.2052V35.3035H25.0837V9.92855C25.0837 5.87189 22.8753 3.63855 18.862 3.63855H8.48533C4.46033 3.63855 2.24366 5.87189 2.24366 9.92855V35.3035H1.66699C1.33547 35.3035 1.01753 35.4352 0.783109 35.6697C0.548688 35.9041 0.416992 36.222 0.416992 36.5535C0.416992 36.8851 0.548688 37.203 0.783109 37.4374C1.01753 37.6718 1.33547 37.8035 1.66699 37.8035H32.872C32.9053 37.8035 32.9353 37.8219 32.9687 37.8219C33.002 37.8219 33.032 37.8052 33.0653 37.8035H38.3337C38.6652 37.8035 38.9831 37.6718 39.2175 37.4374C39.452 37.203 39.5837 36.8851 39.5837 36.5535C39.5837 36.222 39.452 35.9041 39.2175 35.6697C38.9831 35.4352 38.6652 35.3035 38.3337 35.3035ZM22.5837 35.3035H15.0003V30.3035C15.0003 29.972 14.8686 29.6541 14.6342 29.4197C14.3998 29.1852 14.0818 29.0535 13.7503 29.0535C13.4188 29.0535 13.1009 29.1852 12.8664 29.4197C12.632 29.6541 12.5003 29.972 12.5003 30.3035V35.3035H4.74866V9.92855C4.74866 7.27189 5.86866 6.13855 8.49033 6.13855H18.867C21.4753 6.13855 22.5887 7.27189 22.5887 9.92855L22.5837 35.3035ZM33.0003 27.8969C32.3595 27.8964 31.7451 27.6417 31.292 27.1886C30.8389 26.7354 30.5841 26.121 30.5837 25.4802V21.7019C30.5837 21.0609 30.8383 20.4462 31.2915 19.993C31.7447 19.5398 32.3594 19.2852 33.0003 19.2852C33.6413 19.2852 34.256 19.5398 34.7092 19.993C35.1624 20.4462 35.417 21.0609 35.417 21.7019V25.4785C35.417 26.1196 35.1624 26.7345 34.7093 27.188C34.2561 27.6415 33.6414 27.8964 33.0003 27.8969ZM19.167 13.6385C19.167 13.9701 19.0353 14.288 18.8009 14.5224C18.5665 14.7568 18.2485 14.8885 17.917 14.8885H9.66699C9.49482 14.9026 9.3216 14.8809 9.15825 14.8247C8.99491 14.7685 8.84499 14.679 8.71795 14.5619C8.59092 14.4449 8.48953 14.3028 8.42017 14.1445C8.35082 13.9863 8.31502 13.8155 8.31502 13.6427C8.31502 13.47 8.35082 13.2991 8.42017 13.1409C8.48953 12.9827 8.59092 12.8405 8.71795 12.7235C8.84499 12.6064 8.99491 12.517 9.15825 12.4607C9.3216 12.4045 9.49482 12.3828 9.66699 12.3969H17.917C18.2471 12.3969 18.5638 12.5274 18.7979 12.76C19.0321 12.9927 19.1648 13.3085 19.167 13.6385ZM19.167 19.8869C19.167 20.2184 19.0353 20.5363 18.8009 20.7708C18.5665 21.0052 18.2485 21.1369 17.917 21.1369H9.66699C9.33547 21.1369 9.01753 21.0052 8.78311 20.7708C8.54869 20.5363 8.41699 20.2184 8.41699 19.8869C8.41699 19.5554 8.54869 19.2374 8.78311 19.003C9.01753 18.7686 9.33547 18.6369 9.66699 18.6369H17.917C18.2485 18.6369 18.5665 18.7686 18.8009 19.003C19.0353 19.2374 19.167 19.5554 19.167 19.8869Z" fill="#EB662B"/>
</g>
</g>
<defs>
<clipPath id="clip0_2103_6959">
<rect width="40" height="41" fill="white" transform="translate(0 0.630005)"/>
</clipPath>
<clipPath id="clip1_2103_6959">
<rect width="40" height="41" fill="white" transform="translate(0 0.630005)"/>
</clipPath>
</defs>
</svg>
