<svg width="40" height="42" viewBox="0 0 40 42" fill="none" xmlns="http://www.w3.org/2000/svg">
<g clip-path="url(#clip0_2103_6977)">
<g clip-path="url(#clip1_2103_6977)">
<mask id="mask0_2103_6977" style="mask-type:luminance" maskUnits="userSpaceOnUse" x="0" y="0" width="40" height="41">
<path d="M40 0.730103H0V40.7301H40V0.730103Z" fill="white"/>
</mask>
<g mask="url(#mask0_2103_6977)">
<path d="M38.8281 37.0368C37.5348 37.0368 36.9513 36.7463 36.2126 36.3784C35.9077 36.2266 35.588 36.0677 35.2188 35.926L39.177 25.5134C39.485 24.7029 39.4339 23.7962 39.0366 23.0256C38.6394 22.2549 37.9304 21.6873 37.0916 21.4681L34.3662 20.756V12.582C34.3662 10.8666 32.9705 9.47096 31.2551 9.47096H25.8761V6.44643C25.8761 4.03861 23.9172 2.07971 21.5094 2.07971H18.4907C16.0829 2.07971 14.124 4.03861 14.124 6.44643V9.47088H8.745C7.02953 9.47088 5.63391 10.8665 5.63391 12.582V20.756L2.90844 21.4681C2.06961 21.6873 1.36063 22.2549 0.963437 23.0256C0.56625 23.7962 0.515 24.7029 0.823125 25.5134L4.78125 35.9262C4.41219 36.0678 4.0925 36.2267 3.78773 36.3785C3.04891 36.7463 2.46539 37.0369 1.17188 37.0369C0.524687 37.0369 0 37.5616 0 38.2088C0 38.856 0.524687 39.3806 1.17188 39.3806C3.01656 39.3806 3.98125 38.9003 4.83234 38.4766C5.57117 38.1088 6.15469 37.8181 7.4482 37.8181C8.74172 37.8181 9.32524 38.1087 10.0641 38.4766C10.9152 38.9003 11.8798 39.3806 13.7245 39.3806C15.5691 39.3806 16.5337 38.9003 17.3849 38.4766C18.1237 38.1088 18.7072 37.8181 20.0005 37.8181C21.2939 37.8181 21.8773 38.1087 22.6161 38.4766C23.4672 38.9003 24.4318 39.3806 26.2764 39.3806C28.121 39.3806 29.0856 38.9003 29.9367 38.4766C30.6755 38.1088 31.259 37.8181 32.5523 37.8181C33.8457 37.8181 34.4291 38.1087 35.1679 38.4766C36.019 38.9003 36.9836 39.3806 38.8282 39.3806C39.4754 39.3806 40.0001 38.856 40.0001 38.2088C40.0001 37.5616 39.4753 37.0368 38.8281 37.0368ZM16.4677 6.44643C16.4677 5.33096 17.3752 4.42346 18.4907 4.42346H21.5094C22.6248 4.42346 23.5323 5.33096 23.5323 6.44643V9.47088H16.4677V6.44643ZM7.97758 12.582C7.97758 12.1589 8.3218 11.8147 8.74492 11.8147H31.255C31.6781 11.8147 32.0223 12.1589 32.0223 12.582V20.1437L20.2962 17.0798C20.102 17.0291 19.8979 17.0291 19.7037 17.0798L7.9775 20.1437L7.97758 12.582ZM28.892 36.3785C28.1532 36.7463 27.5697 37.0368 26.2764 37.0368C24.9831 37.0368 24.3996 36.7463 23.6609 36.3784C22.8098 35.9546 21.8452 35.4743 20.0005 35.4743C18.1559 35.4743 17.1913 35.9546 16.3402 36.3784C15.6014 36.7462 15.0179 37.0368 13.7245 37.0368C12.4311 37.0368 11.8475 36.7463 11.1088 36.3784C10.2577 35.9546 9.29297 35.4743 7.44828 35.4743C7.33523 35.4743 7.22555 35.4762 7.11891 35.4796L3.01383 24.6806C2.91531 24.4214 2.99211 24.2053 3.04664 24.0995C3.10117 23.9938 3.23266 23.8059 3.50086 23.7358L20 19.4248L36.4991 23.7359C36.7673 23.8059 36.8988 23.9938 36.9534 24.0995C37.0079 24.2053 37.0847 24.4214 36.9862 24.6806L32.8812 35.4797C32.7747 35.4763 32.6652 35.4744 32.5523 35.4744C30.7077 35.4743 29.743 35.9547 28.892 36.3785Z" fill="#EB662B"/>
<path d="M30.8342 25.422L20.2963 22.6685C20.1021 22.6178 19.8981 22.6178 19.7038 22.6685L9.16596 25.422C8.53979 25.5855 8.16479 26.2259 8.32838 26.852C8.49197 27.4782 9.13229 27.8531 9.75846 27.6896L20.0001 25.0136L30.2417 27.6896C30.341 27.7156 30.4407 27.728 30.5388 27.728C31.059 27.728 31.5342 27.3789 31.6717 26.852C31.8354 26.2259 31.4604 25.5855 30.8342 25.422Z" fill="#EB662B"/>
</g>
</g>
</g>
<defs>
<clipPath id="clip0_2103_6977">
<rect width="40" height="41" fill="white" transform="translate(0 0.630005)"/>
</clipPath>
<clipPath id="clip1_2103_6977">
<rect width="40" height="41" fill="white" transform="translate(0 0.630005)"/>
</clipPath>
</defs>
</svg>
