<svg width="40" height="42" viewBox="0 0 40 42" fill="none" xmlns="http://www.w3.org/2000/svg">
<g clip-path="url(#clip0_2103_6968)">
<g clip-path="url(#clip1_2103_6968)">
<path d="M38.3337 36.0752H37.917V32.3252C37.9161 31.5519 37.6085 30.8106 37.0617 30.2638C36.515 29.717 35.7736 29.4094 35.0003 29.4085H34.5837V20.2419H35.0003C35.7736 20.241 36.515 19.9334 37.0617 19.3866C37.6085 18.8398 37.9161 18.0985 37.917 17.3252V11.7869C37.8988 11.2085 37.7168 10.6471 37.3923 10.168C37.0678 9.68893 36.614 9.31172 36.0837 9.08022L21.0837 3.08022C20.3844 2.82271 19.6163 2.82271 18.917 3.08022L3.91699 9.08022C3.38652 9.31155 2.93262 9.68872 2.60808 10.1679C2.28353 10.647 2.10168 11.2084 2.08366 11.7869V17.3252C2.08454 18.0985 2.39212 18.8398 2.93891 19.3866C3.4857 19.9334 4.22705 20.241 5.00033 20.2419H5.41699V29.4085H5.00033C4.22705 29.4094 3.4857 29.717 2.93891 30.2638C2.39212 30.8106 2.08454 31.5519 2.08366 32.3252V36.0752H1.66699C1.33547 36.0752 1.01753 36.2069 0.783109 36.4413C0.548688 36.6757 0.416992 36.9937 0.416992 37.3252C0.416992 37.6567 0.548688 37.9747 0.783109 38.2091C1.01753 38.4435 1.33547 38.5752 1.66699 38.5752H38.3337C38.6652 38.5752 38.9831 38.4435 39.2175 38.2091C39.452 37.9747 39.5837 37.6567 39.5837 37.3252C39.5837 36.9937 39.452 36.6757 39.2175 36.4413C38.9831 36.2069 38.6652 36.0752 38.3337 36.0752ZM5.00033 17.7419C4.89022 17.7406 4.78499 17.6963 4.70713 17.6184C4.62927 17.5405 4.58496 17.4353 4.58366 17.3252V11.7869C4.59943 11.7078 4.63066 11.6327 4.67557 11.5658C4.72048 11.4988 4.77817 11.4414 4.84533 11.3969L19.8337 5.39688C19.8885 5.38561 19.9444 5.38058 20.0003 5.38188C20.0563 5.38039 20.1122 5.38542 20.167 5.39688L35.167 11.3969C35.3009 11.4868 35.3942 11.6256 35.427 11.7835V17.3252C35.4257 17.4353 35.3814 17.5405 35.3035 17.6184C35.2257 17.6963 35.1204 17.7406 35.0103 17.7419H5.00033ZM32.0837 20.2419V29.4085H27.917V20.2419H32.0837ZM25.417 20.2419V29.4085H21.2503V20.2419H25.417ZM18.7503 20.2419V29.4085H14.5837V20.2419H18.7503ZM12.0837 20.2419V29.4085H7.91699V20.2419H12.0837ZM35.417 36.0752H4.58366V32.3252C4.58366 32.2147 4.62756 32.1087 4.7057 32.0306C4.78384 31.9524 4.88982 31.9085 5.00033 31.9085H35.0003C35.1108 31.9085 35.2168 31.9524 35.295 32.0306C35.3731 32.1087 35.417 32.2147 35.417 32.3252V36.0752ZM20.0003 8.57522C19.2586 8.57522 18.5336 8.79515 17.9169 9.20721C17.3003 9.61926 16.8196 10.2049 16.5358 10.8901C16.252 11.5754 16.1777 12.3294 16.3224 13.0568C16.4671 13.7842 16.8242 14.4524 17.3487 14.9769C17.8731 15.5013 18.5413 15.8585 19.2687 16.0032C19.9962 16.1478 20.7502 16.0736 21.4354 15.7898C22.1206 15.5059 22.7063 15.0253 23.1183 14.4086C23.5304 13.7919 23.7503 13.0669 23.7503 12.3252C23.749 11.3311 23.3535 10.378 22.6505 9.67503C21.9475 8.97205 20.9945 8.57654 20.0003 8.57522ZM20.0003 13.5752C19.7531 13.5752 19.5114 13.5019 19.3059 13.3645C19.1003 13.2272 18.9401 13.032 18.8455 12.8036C18.7509 12.5752 18.7261 12.3238 18.7743 12.0813C18.8226 11.8389 18.9416 11.6161 19.1164 11.4413C19.2913 11.2665 19.514 11.1475 19.7565 11.0992C19.9989 11.051 20.2503 11.0757 20.4787 11.1704C20.7071 11.265 20.9023 11.4252 21.0397 11.6307C21.177 11.8363 21.2503 12.078 21.2503 12.3252C21.2494 12.6565 21.1175 12.9739 20.8832 13.2081C20.649 13.4423 20.3316 13.5743 20.0003 13.5752Z" fill="#EB662B"/>
</g>
</g>
<defs>
<clipPath id="clip0_2103_6968">
<rect width="40" height="41" fill="white" transform="translate(0 0.630005)"/>
</clipPath>
<clipPath id="clip1_2103_6968">
<rect width="40" height="41" fill="white" transform="translate(0 0.630005)"/>
</clipPath>
</defs>
</svg>
