<svg width="60" height="61" viewBox="0 0 60 61" fill="none" xmlns="http://www.w3.org/2000/svg">
<g clip-path="url(#clip0_2103_7135)">
<g clip-path="url(#clip1_2103_7135)">
<path fill-rule="evenodd" clip-rule="evenodd" d="M26.5997 49.23C16.1094 47.4541 8.10791 38.3132 8.10791 27.319C8.10791 15.0541 18.0654 5.09668 30.3302 5.09668C42.5951 5.09668 52.5526 15.0541 52.5526 27.319C52.5526 38.3132 44.5511 47.4541 34.0608 49.23L30.3302 57.6229L26.5997 49.23ZM30.3302 19.2387C34.79 19.2387 38.4117 22.8593 38.4117 27.319C38.4117 31.7787 34.79 35.4006 30.3302 35.4006C25.8705 35.4006 22.2487 31.7787 22.2487 27.319C22.2487 22.8593 25.8705 19.2387 30.3302 19.2387Z" fill="#FDF0EA"/>
<path fill-rule="evenodd" clip-rule="evenodd" d="M35.8823 23.1916C36.6894 24.3132 37.1656 25.6898 37.1656 27.1767C37.1656 30.948 34.1029 34.0108 30.3316 34.0108C26.5603 34.0108 23.4976 30.948 23.4976 27.1767C23.4976 23.4055 26.5603 20.3427 30.3316 20.3427C31.4385 20.3427 32.4844 20.6066 33.4091 21.0748C34.025 21.3864 34.7791 21.1394 35.0907 20.5228C35.4024 19.9069 35.1554 19.1535 34.5388 18.8418C33.2746 18.2017 31.845 17.8408 30.3316 17.8408C25.1785 17.8408 20.9956 22.0237 20.9956 27.1767C20.9956 32.3298 25.1785 36.5127 30.3316 36.5127C35.4847 36.5127 39.6676 32.3298 39.6676 27.1767C39.6676 25.1445 39.0171 23.2629 37.9131 21.7297C37.5096 21.1688 36.7268 21.0417 36.1668 21.4452C35.606 21.8487 35.4788 22.6308 35.8823 23.1916Z" fill="#EB662B"/>
<path fill-rule="evenodd" clip-rule="evenodd" d="M12.3678 38.1913C10.3 34.9421 9.10248 31.0871 9.10248 26.9555C9.10248 15.3865 18.4966 5.99237 30.0656 5.99237C41.6346 5.99237 51.0288 15.3865 51.0288 26.9555C51.0288 37.327 43.4824 45.9497 33.5854 47.6238C33.1735 47.6944 32.8221 47.9651 32.6525 48.3487L30.0656 54.1686L27.4788 48.3487C27.3092 47.9651 26.9578 47.6944 26.5458 47.6238C23.1997 47.0583 20.1243 45.6973 17.5173 43.7446C16.966 43.3306 16.1804 43.4437 15.7665 43.9949C15.3545 44.5483 15.4656 45.3318 16.0189 45.7458C18.7632 47.8015 21.974 49.2716 25.4635 49.9662C25.4615 49.9662 28.9227 57.753 28.9227 57.753C29.1246 58.2053 29.5709 58.4961 30.0656 58.4961C30.5604 58.4961 31.0067 58.2053 31.2086 57.753L34.6698 49.9662C45.4169 47.8257 53.5287 38.3306 53.5287 26.9555C53.5287 14.0052 43.0159 3.49243 30.0656 3.49243C17.1154 3.49243 6.60254 14.0052 6.60254 26.9555C6.60254 31.5819 7.94537 35.8973 10.2596 39.5342C10.6311 40.1158 11.4046 40.2874 11.9862 39.9179C12.5677 39.5463 12.7394 38.7729 12.3678 38.1913Z" fill="#EB662B"/>
<path d="M13.7589 43.2868C14.4496 43.2868 15.0095 42.7269 15.0095 42.0362C15.0095 41.3455 14.4496 40.7856 13.7589 40.7856C13.0682 40.7856 12.5083 41.3455 12.5083 42.0362C12.5083 42.7269 13.0682 43.2868 13.7589 43.2868Z" fill="#EB662B"/>
</g>
</g>
<defs>
<clipPath id="clip0_2103_7135">
<rect width="60" height="60" fill="white" transform="translate(0 0.939941)"/>
</clipPath>
<clipPath id="clip1_2103_7135">
<rect width="60" height="60" fill="white" transform="translate(0 0.939941)"/>
</clipPath>
</defs>
</svg>
