<svg width="40" height="42" viewBox="0 0 40 42" fill="none" xmlns="http://www.w3.org/2000/svg">
<g clip-path="url(#clip0_2103_7015)">
<g clip-path="url(#clip1_2103_7015)">
<g clip-path="url(#clip2_2103_7015)">
<mask id="mask0_2103_7015" style="mask-type:luminance" maskUnits="userSpaceOnUse" x="0" y="0" width="40" height="41">
<path d="M40 0.730103H0V40.7301H40V0.730103Z" fill="white"/>
</mask>
<g mask="url(#mask0_2103_7015)">
<path d="M31.9141 8.15232H29.9609V3.46374C29.9609 2.58897 29.5377 1.76068 28.8289 1.24811C28.1201 0.735532 27.2009 0.592954 26.3701 0.867016L7.22938 7.17999C6.10617 7.55054 5.35156 8.59412 5.35156 9.77678V31.6155V37.9957C5.35156 39.5034 6.5782 40.7301 8.08594 40.7301H31.9141C33.4218 40.7301 34.6484 39.5034 34.6484 37.9957V10.8867C34.6484 9.37904 33.4218 8.15232 31.9141 8.15232ZM32.3047 37.9957C32.3047 38.2111 32.1295 38.3863 31.9141 38.3863H8.08594C7.87055 38.3863 7.69531 38.2111 7.69531 37.9957V30.4437V10.8867C7.69531 10.6713 7.87055 10.4961 8.08594 10.4961H31.9141C32.1295 10.4961 32.3047 10.6713 32.3047 10.8867V37.9957ZM27.1042 3.0928C27.2692 3.03843 27.3951 3.10358 27.4555 3.14726C27.5159 3.19093 27.6173 3.29007 27.6173 3.46374V8.1524H11.7639L27.1042 3.0928Z" fill="#EB662B"/>
<path d="M12.1875 24.0489H13.608H27.8125C28.4597 24.0489 28.9844 23.5242 28.9844 22.877C28.9844 22.2298 28.4597 21.7051 27.8125 21.7051H27.473C26.9679 18.4709 24.4061 15.9091 21.1719 15.404V14.8168C21.1719 14.1696 20.6472 13.6449 20 13.6449C19.3528 13.6449 18.8281 14.1696 18.8281 14.8168V15.404C15.5939 15.9091 13.0321 18.4709 12.527 21.7051H12.1875C11.5403 21.7051 11.0156 22.2298 11.0156 22.877C11.0156 23.5242 11.5403 24.0489 12.1875 24.0489ZM20 17.6568C22.4756 17.6568 24.5542 19.3892 25.0876 21.7051H14.9124C15.4458 19.3892 17.5245 17.6568 20 17.6568Z" fill="#EB662B"/>
<path d="M12.6416 27.215C11.9944 27.215 11.4697 27.7396 11.4697 28.3868C11.4697 29.034 11.9944 29.5587 12.6416 29.5587H18.2666C18.9138 29.5587 19.4385 29.034 19.4385 28.3868C19.4385 27.7396 18.9138 27.215 18.2666 27.215H12.6416Z" fill="#EB662B"/>
<path d="M27.5195 31.9025H12.4805C11.8333 31.9025 11.3086 32.4271 11.3086 33.0743C11.3086 33.7215 11.8333 34.2462 12.4805 34.2462H27.5195C28.1667 34.2462 28.6914 33.7215 28.6914 33.0743C28.6914 32.4271 28.1667 31.9025 27.5195 31.9025Z" fill="#EB662B"/>
</g>
</g>
</g>
</g>
<defs>
<clipPath id="clip0_2103_7015">
<rect width="40" height="41" fill="white" transform="translate(0 0.630005)"/>
</clipPath>
<clipPath id="clip1_2103_7015">
<rect width="40" height="41" fill="white" transform="translate(0 0.630005)"/>
</clipPath>
<clipPath id="clip2_2103_7015">
<rect width="40" height="41" fill="white" transform="translate(0 0.630005)"/>
</clipPath>
</defs>
</svg>
