<svg width="60" height="61" viewBox="0 0 60 61" fill="none" xmlns="http://www.w3.org/2000/svg">
<g clip-path="url(#clip0_2103_7156)">
<g clip-path="url(#clip1_2103_7156)">
<path fill-rule="evenodd" clip-rule="evenodd" d="M9.2927 55.0154C6.29432 54.5077 4.00684 51.8951 4.00684 48.7524C4.00684 45.2464 6.85333 42.3999 10.3593 42.3999C13.8653 42.3999 16.7118 45.2464 16.7118 48.7524C16.7118 51.8951 14.4243 54.5077 11.426 55.0154L10.3593 57.4149L9.2927 55.0154Z" fill="#FDF0EA"/>
<path fill-rule="evenodd" clip-rule="evenodd" d="M49.1008 17.5154C46.1024 17.0077 43.8149 14.3951 43.8149 11.2524C43.8149 7.7464 46.6614 4.8999 50.1674 4.8999C53.6734 4.8999 56.5199 7.7464 56.5199 11.2524C56.5199 14.3951 54.2325 17.0077 51.2341 17.5154L50.1674 19.9149L49.1008 17.5154Z" fill="#FDF0EA"/>
<path fill-rule="evenodd" clip-rule="evenodd" d="M8.40678 56.1022L9.21585 57.923C9.41682 58.3746 9.86497 58.6663 10.3593 58.6663C10.8537 58.6663 11.3018 58.3746 11.5028 57.923L12.3118 56.1022C15.5632 55.24 17.9633 52.2745 17.9633 48.7523C17.9633 44.5556 14.556 41.1484 10.3593 41.1484C6.16262 41.1484 2.75537 44.5556 2.75537 48.7523C2.75537 52.2739 5.15545 55.2394 8.40678 56.1022ZM10.3593 54.3616C10.1722 54.0555 9.86036 53.8424 9.50173 53.7818C7.09356 53.3741 5.25825 51.276 5.25825 48.7523C5.25825 45.937 7.544 43.6513 10.3593 43.6513C13.1746 43.6513 15.4604 45.937 15.4604 48.7523C15.4604 51.276 13.6251 53.3741 11.2169 53.7818C10.8583 53.8424 10.5464 54.0555 10.3593 54.3616Z" fill="#EB662B"/>
<path fill-rule="evenodd" clip-rule="evenodd" d="M50.1674 16.8616C49.9803 16.5555 49.6685 16.3424 49.3098 16.2818C46.9017 15.8741 45.0664 13.776 45.0664 11.2523C45.0664 8.43706 47.3521 6.15131 50.1674 6.15131C50.7605 6.15131 51.3299 6.25238 51.8601 6.43892C52.5115 6.66818 53.2264 6.32572 53.4557 5.6743C53.685 5.02288 53.3425 4.30793 52.6911 4.07809C51.9011 3.80031 51.0516 3.64844 50.1674 3.64844C45.9707 3.64844 42.5635 7.05568 42.5635 11.2523C42.5635 14.7745 44.9641 17.74 48.2155 18.6028L49.024 20.423C49.2249 20.8746 49.6731 21.1663 50.1674 21.1663C50.6618 21.1663 51.1099 20.8746 51.3109 20.423L52.12 18.6022C55.3713 17.74 57.7714 14.7745 57.7714 11.2523C57.7714 9.70121 57.3059 8.25861 56.5072 7.0551C56.1255 6.47991 55.3482 6.32226 54.773 6.70456C54.1978 7.08629 54.0401 7.86302 54.4219 8.43879C54.9572 9.24556 55.2685 10.2129 55.2685 11.2523C55.2685 13.776 53.4332 15.8741 51.025 16.2818C50.6664 16.3424 50.3545 16.5555 50.1674 16.8616Z" fill="#EB662B"/>
<path fill-rule="evenodd" clip-rule="evenodd" d="M19.1641 58.4687H21.6653C22.3557 58.4687 22.916 57.9084 22.916 57.2181C22.916 56.5277 22.3557 55.9674 21.6653 55.9674H19.1641C18.4737 55.9674 17.9135 56.5277 17.9135 57.2181C17.9135 57.9084 18.4737 58.4687 19.1641 58.4687ZM29.1691 58.4687H38.5488C45.1108 58.4687 50.4297 53.1498 50.4297 46.5878C50.4297 43.4362 49.1779 40.4147 46.9505 38.1861C44.7219 35.9587 41.7004 34.7068 38.5488 34.7068C32.5933 34.7068 25.2834 34.7068 19.7894 34.7068C17.9647 34.7068 16.2151 33.9827 14.9257 32.6921C13.6351 31.4027 12.911 29.653 12.911 27.8284C12.911 26.0037 13.6351 24.2541 14.9257 22.9647C16.2151 21.6741 17.9647 20.9499 19.7894 20.9499H21.6653C22.3557 20.9499 22.916 20.3897 22.916 19.6993C22.916 19.009 22.3557 18.4487 21.6653 18.4487H19.7894C17.3019 18.4487 14.9157 19.4367 13.1574 21.1963C11.3977 22.9547 10.4097 25.3409 10.4097 27.8284C10.4097 30.3159 11.3977 32.7021 13.1574 34.4604C14.9157 36.2201 17.3019 37.2081 19.7894 37.2081H38.5488C41.0363 37.2081 43.4224 38.1961 45.1808 39.9557C46.9404 41.7141 47.9285 44.1003 47.9285 46.5878C47.9285 51.7678 43.7289 55.9674 38.5488 55.9674H29.1691C28.4787 55.9674 27.9185 56.5277 27.9185 57.2181C27.9185 57.9084 28.4787 58.4687 29.1691 58.4687ZM25.4172 20.9499H41.6753C42.3657 20.9499 42.926 20.3897 42.926 19.6993C42.926 19.009 42.3657 18.4487 41.6753 18.4487H25.4172C24.7269 18.4487 24.1666 19.009 24.1666 19.6993C24.1666 20.3897 24.7269 20.9499 25.4172 20.9499Z" fill="#EB662B"/>
<path d="M25.0065 58.4648C25.6972 58.4648 26.2572 57.9049 26.2572 57.2142C26.2572 56.5235 25.6972 55.9636 25.0065 55.9636C24.3158 55.9636 23.7559 56.5235 23.7559 57.2142C23.7559 57.9049 24.3158 58.4648 25.0065 58.4648Z" fill="#EB662B"/>
</g>
</g>
<defs>
<clipPath id="clip0_2103_7156">
<rect width="60" height="60" fill="white" transform="translate(0 0.939941)"/>
</clipPath>
<clipPath id="clip1_2103_7156">
<rect width="60" height="60" fill="white" transform="translate(0 0.939941)"/>
</clipPath>
</defs>
</svg>
