<svg width="60" height="61" viewBox="0 0 60 61" fill="none" xmlns="http://www.w3.org/2000/svg">
<g clip-path="url(#clip0_2103_7145)">
<g clip-path="url(#clip1_2103_7145)">
<path d="M29.9702 56.9479C44.4749 56.9479 56.2333 45.1895 56.2333 30.6847C56.2333 16.18 44.4749 4.42163 29.9702 4.42163C15.4654 4.42163 3.70703 16.18 3.70703 30.6847C3.70703 45.1895 15.4654 56.9479 29.9702 56.9479Z" fill="white"/>
<path d="M29.9703 31.9355C35.4959 31.9355 39.9753 27.4561 39.9753 21.9305C39.9753 16.4049 35.4959 11.9255 29.9703 11.9255C24.4447 11.9255 19.9653 16.4049 19.9653 21.9305C19.9653 27.4561 24.4447 31.9355 29.9703 31.9355Z" fill="#FDF0EA"/>
<path fill-rule="evenodd" clip-rule="evenodd" d="M50.3852 48.5986C45.9205 52.1054 36.487 57.353 30.3752 57.353C24.2634 57.353 14.8299 52.1054 10.3652 48.5986C11.2694 40.5033 21.951 37.343 30.3752 37.343C38.7994 37.343 49.481 40.5033 50.3852 48.5986Z" fill="#FDF0EA"/>
<path d="M4.22008 37.1989C4.91036 37.1989 5.46995 36.6393 5.46995 35.9491C5.46995 35.2588 4.91036 34.6992 4.22008 34.6992C3.5298 34.6992 2.97021 35.2588 2.97021 35.9491C2.97021 36.6393 3.5298 37.1989 4.22008 37.1989Z" fill="#EB662B"/>
<path fill-rule="evenodd" clip-rule="evenodd" d="M8.66425 47.9833C6.81707 45.6146 5.35006 42.9371 4.35332 40.0406C4.1282 39.3878 4.47587 38.6762 5.1287 38.4511C5.78027 38.2272 6.49312 38.5736 6.71824 39.2264C7.45736 41.375 8.48167 43.391 9.7448 45.2294C14.8123 39.6229 22.161 36.0924 30.3751 36.0924C38.5892 36.0924 45.9378 39.6229 51.0054 45.2294C53.7692 41.2062 55.3876 36.3363 55.3876 31.0899C55.3876 26.879 54.3445 22.9095 52.5036 19.4265C52.1809 18.8162 52.4149 18.0584 53.0252 17.7357C53.6355 17.4143 54.3921 17.6469 54.7147 18.2572C56.7407 22.0891 57.8888 26.4563 57.8888 31.0899C57.8888 37.4581 55.7215 43.3235 52.0834 47.9871C52.0709 48.0046 52.0572 48.0221 52.0434 48.0384C47.0059 54.4691 39.1695 58.6036 30.3751 58.6036C21.5819 58.6036 13.7481 54.4703 8.70928 48.0421C8.69427 48.0233 8.678 48.0033 8.66425 47.9833ZM49.4571 47.2542C44.8386 41.9516 38.0189 38.5936 30.3751 38.5936C22.7313 38.5936 15.9116 41.9516 11.293 47.2542C15.8828 52.6657 22.7313 56.1024 30.3751 56.1024C38.0189 56.1024 44.8673 52.6657 49.4571 47.2542ZM5.39006 32.2817C5.42257 32.9708 4.88985 33.5574 4.19951 33.5899C3.51041 33.6224 2.92389 33.0884 2.89262 32.3993C2.87136 31.9653 2.86133 31.5289 2.86133 31.0899C2.86133 15.9048 15.19 3.57617 30.3751 3.57617C39.5284 3.57617 47.645 8.05592 52.6475 14.9406C53.0527 15.4996 52.9289 16.2825 52.3711 16.6877C51.8121 17.0929 51.0291 16.9691 50.6239 16.4113C46.0754 10.1507 38.698 6.07742 30.3751 6.07742C16.5707 6.07742 5.36258 17.2855 5.36258 31.0899C5.36258 31.4888 5.37255 31.8865 5.39006 32.2817ZM30.3751 11.0799C36.5869 11.0799 41.6307 16.1237 41.6307 22.3355C41.6307 28.5474 36.5869 33.5911 30.3751 33.5911C24.1632 33.5911 19.1195 28.5474 19.1195 22.3355C19.1195 16.1237 24.1632 11.0799 30.3751 11.0799ZM30.3751 13.5811C25.5439 13.5811 21.6207 17.5043 21.6207 22.3355C21.6207 27.1667 25.5439 31.0899 30.3751 31.0899C35.2062 31.0899 39.1295 27.1667 39.1295 22.3355C39.1295 17.5043 35.2062 13.5811 30.3751 13.5811Z" fill="#EB662B"/>
</g>
</g>
<defs>
<clipPath id="clip0_2103_7145">
<rect width="60" height="60" fill="white" transform="translate(0 0.939941)"/>
</clipPath>
<clipPath id="clip1_2103_7145">
<rect width="60" height="60" fill="white" transform="translate(0 0.939941)"/>
</clipPath>
</defs>
</svg>
